<svg height="423pt" viewBox="-68 0 423 423.58173" width="423pt" xmlns="http://www.w3.org/2000/svg"><path d="m172.113281 289.230469h-129.703125v-205.273438c0-34.199219 27.722656-61.921875 61.921875-61.921875h5.855469c34.199219 0 61.925781 27.722656 61.925781 61.921875zm0 0" fill="#8c6b37"/><path d="m172.109375 296.054688h-129.699219c-3.773437 0-6.828125-3.054688-6.828125-6.824219v-205.277344c0-37.90625 30.839844-68.746094 68.746094-68.746094h5.863281c37.90625 0 68.746094 30.839844 68.746094 68.746094v205.273437c0 3.773438-3.054688 6.828126-6.828125 6.828126zm-122.871094-13.652344h116.046875v-198.449219c0-30.378906-24.714844-55.089844-55.09375-55.089844h-5.863281c-30.378906 0-55.089844 24.710938-55.089844 55.089844zm0 0"/><path d="m18.71875 294.6875c-9.375-3.664062-14-14.230469-10.335938-23.601562l60.121094-110.59375c3.664063-9.371094 2.082032-26.144532 11.453125-22.480469l12.144531 12.144531c9.375 3.660156 1.855469 2.082031-1.808593 11.453125l-47.976563 122.742187c-3.664062 9.371094-14.226562 13.996094-23.597656 10.335938zm0 0" fill="#ffdd95"/><path d="m25.359375 302.773438c-3.082031 0-6.167969-.574219-9.128906-1.730469-6.234375-2.433594-11.140625-7.152344-13.828125-13.28125-2.679688-6.125-2.8125-12.933594-.378906-19.164063.105468-.265625.226562-.523437.359374-.773437l59.898438-110.183594c.808594-2.246094 1.347656-5.351563 1.875-8.355469 1.207031-6.917968 2.453125-14.066406 8.105469-17.25 2.089843-1.167968 5.542969-2.203125 10.183593-.386718.871094.339843 1.671876.863281 2.339844 1.53125l11.144532 11.144531c3.40625 1.382812 6.628906 3.066406 7.394531 7.074219.800781 4.203124-2.015625 6.828124-3.363281 8.085937-1.117188 1.039063-2.378907 2.222656-3.3125 4.605469l-47.972657 122.742187c-2.433593 6.230469-7.152343 11.140625-13.277343 13.824219-3.222657 1.414062-6.628907 2.117188-10.039063 2.117188zm-10.75-28.84375c-.972656 2.734374-.867187 5.6875.308594 8.359374 1.21875 2.785157 3.453125 4.929688 6.289062 6.035157 2.824219 1.105469 5.917969 1.058593 8.71875-.171875 2.785157-1.222656 4.925781-3.453125 6.03125-6.289063l47.972657-122.742187c.765624-1.957032 1.667968-3.574219 2.574218-4.914063l-7.867187-7.871093c-.40625 1.726562-.765625 3.796874-1.03125 5.296874-.667969 3.832032-1.351563 7.792969-2.738281 11.339844-.105469.265625-.226563.527344-.359376.777344zm0 0"/><path d="m196.242188 247.808594-27.375-66.09375c-8.3125-20.070313-25-35.554688-45.675782-42.21875-21.265625-6.855469-40.402344-9.15625-30.601562-3.570313-16.617188-2.558593-32.277344 8.503907-35.425782 25.023438l-7.925781 98.792969 80.363281 17.34375 12.144532-72.9375 23.78125 57.414062c3.667968 8.859375 14.035156 12.914062 22.800781 8.734375 8.222656-3.925781 11.398437-14.074219 7.914063-22.488281zm0 0" fill="#ffdd95"/><path d="m129.605469 283.910156c-.480469 0-.960938-.046875-1.441407-.152344l-80.367187-17.34375c-3.347656-.722656-5.640625-3.808593-5.367187-7.21875l7.925781-98.792968c.023437-.246094.054687-.492188.101562-.730469 3.289063-17.261719 17.566407-29.542969 34.328125-30.835937 2.390625-3.027344 9.71875-5.765626 40.496094 4.160156 22.582031 7.28125 40.769531 24.085937 49.886719 46.105468l27.378906 66.09375v.003907c5.015625 12.121093.0625 25.847656-11.277344 31.257812-5.933593 2.820313-12.566406 3.085938-18.671875.742188-6.035156-2.3125-10.910156-7.0625-13.375-13.03125l-14.652344-35.382813-8.234374 49.421875c-.304688 1.84375-1.351563 3.480469-2.898438 4.523438-1.140625.777343-2.472656 1.179687-3.832031 1.179687zm-73.085938-29.582031 67.523438 14.574219 10.976562-65.878906c.5-3.007813 2.933594-5.316407 5.957031-5.660157 3.089844-.359375 5.914063 1.363281 7.078126 4.167969l23.78125 57.414062c1.0625 2.558594 3.066406 4.511719 5.652343 5.507813 2.582031.992187 5.394531.871094 7.902344-.320313 4.707031-2.246093 6.746094-8.398437 4.546875-13.714843l-27.382812-66.089844c-7.585938-18.3125-22.699219-32.289063-41.457032-38.335937-9.554687-3.082032-17.847656-4.957032-23.160156-5.820313-1.492188 1.875-3.914062 2.878906-6.386719 2.5-12.933593-1.984375-24.996093 6.429687-27.613281 19.214844zm0 0"/><path d="m147.820312 195.101562c0 15.09375-12.234374 27.328126-27.328124 27.328126-15.089844 0-27.324219-12.234376-27.324219-27.328126 0-15.089843 12.234375-27.324218 27.324219-27.324218 15.09375 0 27.328124 12.234375 27.328124 27.324218zm0 0" fill="#ee5281"/><path d="m120.492188 229.257812c-18.835938 0-34.15625-15.320312-34.15625-34.152343s15.320312-34.152344 34.15625-34.152344c18.832031 0 34.160156 15.320313 34.160156 34.152344s-15.328125 34.152343-34.160156 34.152343zm0-54.652343c-11.308594 0-20.503907 9.195312-20.503907 20.5 0 11.304687 9.195313 20.5 20.503907 20.5 11.304687 0 20.503906-9.195313 20.503906-20.5 0-11.304688-9.199219-20.5-20.503906-20.5zm0 0"/><path d="m93.167969 189.03125c0 15.09375-12.234375 27.328125-27.328125 27.328125s-27.328125-12.234375-27.328125-27.328125 12.234375-27.328125 27.328125-27.328125 27.328125 12.234375 27.328125 27.328125zm0 0" fill="#ee5281"/><path d="m65.835938 223.183594c-18.832032 0-34.152344-15.320313-34.152344-34.152344s15.320312-34.152344 34.152344-34.152344c18.835937 0 34.15625 15.320313 34.15625 34.152344s-15.320313 34.152344-34.15625 34.152344zm0-54.652344c-11.304688 0-20.5 9.199219-20.5 20.5 0 11.304688 9.195312 20.503906 20.5 20.503906 11.308593 0 20.503906-9.199218 20.503906-20.503906 0-11.300781-9.195313-20.5-20.503906-20.5zm0 0"/><path d="m279.476562 239.5c-45.050781-9.847656-57.925781 36.109375-57.925781 36.109375 9.65625-49.238281-41.832031-55.804687-41.832031-55.804687-16.089844 32.824218 9.65625 59.085937 9.65625 59.085937v23.417969c0 14.574218-10.445312 27.585937-24.667969 28.972656-11.242187 1.089844-21.253906-4.761719-26.394531-13.84375-3.265625-5.777344-3.886719-12.730469-2.585938-19.265625l7.351563-36.941406-10.660156-12.683594c-6.777344-8.066406-18.273438-9.972656-27.207031-4.503906-8.402344 5.144531-19.160157 3.792969-26.089844-3.277344l-2.296875-2.34375c-5.921875-6.042969-14.761719-7.992187-22.601563-4.992187l-10.941406 4.183593-6.75 55.761719c-2.214844 18.285156-.675781 37.046875 6.019531 54.15625 16.328125 41.726562 56.988281 70.855469 104.089844 69.152344 57.199219-2.074219 103.875-54.148438 103.875-112.53125v-12.136719c41.832031-13.125 28.960937-52.515625 28.960937-52.515625zm0 0" fill="#288eea"/><path d="m142.808594 423.582031c-46.738282.003907-89.238282-29.140625-106.617188-73.5625-6.695312-17.09375-8.921875-36.964843-6.441406-57.460937l6.746094-55.765625c.308594-2.511719 1.972656-4.648438 4.339844-5.554688l10.941406-4.1875c10.359375-3.964843 22.105468-1.375 29.917968 6.589844l2.300782 2.347656c4.707031 4.796875 11.953125 5.707031 17.65625 2.230469 11.863281-7.261719 26.996094-4.769531 35.992187 5.933594l10.660157 12.683594c1.332031 1.585937 1.875 3.691406 1.464843 5.726562l-7.351562 36.941406c-1.074219 5.402344-.421875 10.574219 1.832031 14.570313 4.085938 7.214843 11.703125 11.222656 19.792969 10.410156 10.375-1.011719 18.5-10.75 18.5-22.175781v-20.773438c-9.917969-11.570312-22.460938-37.191406-8.953125-64.738281 1.285156-2.617187 4.121094-4.125 6.988281-3.765625 1.078125.140625 26.5 3.578125 40.363281 22.789062 3.128906 4.335938 5.410156 9.082032 6.84375 14.222657 10.777344-12.699219 28.078125-22.6875 53.152344-17.214844 2.359375.515625 4.28125 2.246094 5.027344 4.550781.257812.796875 6.285156 19.757813-2.808594 37.421875-5.097656 9.914063-13.773438 17.316407-25.820312 22.046875v7.308594c0 62.523438-50.582032 117.179688-110.453126 119.351562-1.359374.046876-2.71875.074219-4.074218.074219zm-93.25-181.0625-6.246094 51.679688c-2.214844 18.261719-.28125 35.84375 5.597656 50.84375 15.773438 40.316406 54.941406 66.335937 97.480469 64.820312 52.738281-1.914062 97.292969-50.324219 97.292969-105.707031v-12.136719c0-2.984375 1.933594-5.621093 4.78125-6.511719 10.945312-3.433593 18.53125-9.136718 22.558594-16.953124 4.402343-8.5625 3.703124-18.015626 2.820312-23.136719-35.023438-4.878907-45.277344 30.472656-45.71875 32.03125-.988281 3.535156-4.585938 5.65625-8.152344 4.800781-3.566406-.847656-5.828125-4.359375-5.121094-7.953125 2.40625-12.273437.746094-22.503906-4.925781-30.414063-7.203125-10.023437-19.339843-14.46875-26.128906-16.25-9.253906 25.664063 9.609375 45.609376 10.46875 46.496094 1.226563 1.273438 1.933594 2.992188 1.933594 4.761719v23.421875c0 18.371094-13.542969 34.082031-30.832031 35.761719-13.367188 1.304687-26.320313-5.476563-32.996094-17.273438-3.867188-6.839843-5.050782-15.347656-3.339844-23.960937l6.714844-33.726563-8.554688-10.171875c-4.605468-5.488281-12.34375-6.78125-18.417968-3.074218-11.140626 6.804687-25.339844 5.046874-34.527344-4.320313l-2.300782-2.347656c-4-4.078125-10.027343-5.40625-15.285156-3.390625zm0 0"/><path d="m102.277344 155.632812c-8.386719 0-15.179688-6.796874-15.179688-15.183593v-6.070313c0-8.386718 6.796875-15.179687 15.179688-15.179687 8.382812 0 15.179687 6.796875 15.179687 15.179687v6.070313c0 8.386719-6.796875 15.183593-15.179687 15.183593zm0 0" fill="#ffdd95"/><path d="m102.277344 162.457031c-12.132813 0-22.007813-9.871093-22.007813-22.007812v-6.074219c0-12.132812 9.871094-22.007812 22.007813-22.007812 12.132812 0 22.007812 9.875 22.007812 22.007812v6.074219c0 12.136719-9.875 22.007812-22.007812 22.007812zm0-36.433593c-4.605469 0-8.355469 3.75-8.355469 8.355468v6.074219c0 4.605469 3.746094 8.355469 8.355469 8.355469s8.355468-3.746094 8.355468-8.355469v-6.074219c0-4.605468-3.746093-8.355468-8.355468-8.355468zm0 0"/><path d="m111.664062 131.339844h-6.632812c-23.320312 0-42.226562-18.90625-42.226562-42.226563v-24.851562c0-23.320313 18.90625-42.226563 42.226562-42.226563h6.632812c23.324219 0 42.230469 18.90625 42.230469 42.226563v24.851562c0 23.320313-18.90625 42.226563-42.230469 42.226563zm0 0" fill="#ffdd95"/><path d="m111.664062 138.167969h-6.632812c-27.046875 0-49.054688-22.007813-49.054688-49.054688v-24.851562c0-27.046875 22.007813-49.054688 49.054688-49.054688h6.632812c27.046876 0 49.050782 22.007813 49.050782 49.054688v24.851562c.003906 27.046875-22.003906 49.054688-49.050782 49.054688zm-6.632812-109.304688c-19.519531 0-35.398438 15.878907-35.398438 35.398438v24.851562c0 19.519531 15.878907 35.402344 35.398438 35.402344h6.632812c19.523438 0 35.402344-15.882813 35.402344-35.402344v-24.851562c0-19.519531-15.882812-35.398438-35.402344-35.398438zm0 0"/><path d="m68.878906 15.960938s-12.144531 66.800781 103.234375 97.164062v-31.945312c0-28.238282-15.789062-54.101563-40.90625-67.007813l-.472656-.242187c-19.585937-10.066407-42.976563-9.296876-61.855469 2.03125zm0 0" fill="#8c6b37"/><path d="m172.109375 119.949219c-.578125 0-1.167969-.074219-1.738281-.222657-120.109375-31.609374-108.753906-102.003906-108.207032-104.984374.347657-1.933594 1.511719-3.625 3.199219-4.632813 21.054688-12.628906 46.640625-13.476563 68.488281-2.253906 27.992188 14.386719 45.085938 42.386719 45.085938 73.324219v31.941406c0 2.117187-.980469 4.113281-2.660156 5.40625-1.207032.929687-2.671875 1.421875-4.167969 1.421875zm-96.792969-99.78125c-.53125 12.347656 3.554688 58.445312 89.96875 83.964843v-22.953124c0-25.796876-14.253906-49.144532-37.195312-60.933594-17.050782-8.769532-36.386719-8.660156-52.773438-.078125zm0 0"/><path d="m85.277344 384.390625c-.566406 0-1.140625-.070313-1.722656-.214844-3.644532-.949219-5.839844-4.671875-4.890626-8.320312l2.550782-9.867188c2.074218-7.992187 8.089844-13.277343 15.027344-13.277343.128906 0 .25.003906.367187.007812l7.894531.214844c.425782-.128906 1.773438-1.640625 2.054688-4.429688 1.011718-9.910156 7.820312-17.027344 16.300781-16.675781l10.0625.496094c3.769531.183593 6.667969 3.386719 6.488281 7.152343-.1875 3.765626-3.464844 6.625-7.152344 6.484376l-10.066406-.492188c-.3125.097656-1.738281 1.417969-2.046875 4.421875-.992187 9.722656-7.660156 16.777344-16.003906 16.6875l-7.894531-.210937c-.246094.078124-1.265625.957031-1.8125 3.046874l-2.554688 9.859376c-.792968 3.078124-3.566406 5.117187-6.601562 5.117187zm0 0"/><path d="m56.0625 328.007812c-1.746094 0-3.492188-.667968-4.824219-2-2.667969-2.664062-2.667969-6.988281 0-9.652343l8.253907-8.257813c5.316406-5.308594 13.398437-6.621094 20.105468-3.261718 1.453125.738281 3.207032.441406 4.347656-.707032l2.84375-2.851562c5.320313-5.304688 13.394532-6.632813 20.113282-3.269532l6.828125 3.414063c3.375 1.6875 4.738281 5.789063 3.054687 9.160156-1.6875 3.371094-5.789062 4.734375-9.160156 3.054688l-6.828125-3.414063c-1.457031-.738281-3.199219-.445312-4.347656.707032l-2.84375 2.847656c-5.308594 5.308594-13.382813 6.640625-20.113281 3.269531-1.457032-.738281-3.203126-.4375-4.347657.707031l-8.253906 8.253906c-1.332031 1.335938-3.078125 2-4.828125 2zm0 0"/><path d="m226.730469 348.488281c-1.746094 0-3.492188-.667969-4.828125-2l-2.304688-2.308593c-.628906-.621094-1.566406-.78125-2.363281-.378907-7.71875 3.871094-17.171875.726563-21.058594-7.015625-.242187-.492187-.425781-1.003906-.546875-1.535156l-.445312-1.957031c-.714844-3.109375-3.433594-5.285157-6.621094-5.285157h-2.792969c-3.773437 0-6.828125-3.054687-6.828125-6.824218 0-3.773438 3.054688-6.828125 6.828125-6.828125h2.792969c9.601562 0 17.792969 6.535156 19.925781 15.898437l.199219.863282c.609375.675781 1.597656.898437 2.441406.46875 6.0625-3.015626 13.339844-1.84375 18.121094 2.941406l2.308594 2.308594c2.664062 2.664062 2.664062 6.988281 0 9.652343-1.335938 1.335938-3.082032 2-4.828125 2zm0 0"/><path d="m216.53125 310.390625c-4.40625 0-8.792969-1.839844-11.902344-5.429687-.351562-.414063-.660156-.867188-.90625-1.347657l-.910156-1.785156c-1.460938-2.851563-4.628906-4.277344-7.71875-3.496094l-2.707031.683594c-3.648438.914063-7.367188-1.273437-8.300781-4.9375-.925782-3.65625 1.285156-7.367187 4.941406-8.292969l2.707031-.6875c9.285156-2.355468 18.859375 1.957032 23.230469 10.507813l.402344.785156c.75.507813 1.777343.480469 2.476562-.144531 5.136719-4.429688 12.488281-5.0625 18.289062-1.609375l2.8125 1.671875c3.238282 1.925781 4.300782 6.117187 2.375 9.355468-1.933593 3.242188-6.109374 4.300782-9.359374 2.378907l-2.808594-1.671875c-.746094-.457032-1.714844-.367188-2.386719.214844-2.957031 2.554687-6.601563 3.804687-10.234375 3.804687zm0 0"/></svg>