<svg height="430pt" viewBox="-71 0 430 430.40839" width="430pt" xmlns="http://www.w3.org/2000/svg"><path d="m172.023438 289.230469h-129.699219v-205.273438c0-34.199219 27.722656-61.921875 61.921875-61.921875h5.855468c34.199219 0 61.921876 27.722656 61.921876 61.921875zm0 0" fill="#94c1ff"/><path d="m172.023438 296.054688h-129.699219c-3.773438 0-6.828125-3.054688-6.828125-6.824219v-205.277344c0-37.90625 30.839844-68.746094 68.746094-68.746094h5.863281c37.90625 0 68.746093 30.839844 68.746093 68.746094v205.273437c0 3.773438-3.054687 6.828126-6.828124 6.828126zm-122.871094-13.652344h116.042968v-198.449219c0-30.378906-24.710937-55.089844-55.089843-55.089844h-5.863281c-30.378907 0-55.089844 24.710938-55.089844 55.089844zm0 0" fill="#0e65e5"/><path d="m18.628906 294.6875c-9.371094-3.664062-13.996094-14.230469-10.335937-23.601562l60.125-110.59375c3.660156-9.371094 2.082031-26.144532 11.453125-22.480469l12.144531 12.144531c9.371094 3.660156 1.855469 2.082031-1.808594 11.453125l-47.976562 122.742187c-3.664063 9.371094-14.230469 13.996094-23.601563 10.335938zm0 0" fill="#d7e9ff"/><path d="m25.269531 302.773438c-3.078125 0-6.164062-.574219-9.125-1.730469-6.234375-2.433594-11.140625-7.152344-13.828125-13.28125-2.679687-6.125-2.8125-12.933594-.382812-19.164063.109375-.265625.230468-.523437.363281-.773437l59.898437-110.183594c.808594-2.246094 1.347657-5.351563 1.875-8.355469 1.207032-6.917968 2.453126-14.066406 8.105469-17.25 2.089844-1.167968 5.539063-2.203125 10.179688-.386718.875.339843 1.675781.863281 2.339843 1.53125l11.148438 11.144531c3.40625 1.382812 6.625 3.066406 7.394531 7.074219.796875 4.203124-2.015625 6.828124-3.363281 8.085937-1.117188 1.039063-2.378906 2.222656-3.3125 4.605469l-47.972656 122.742187c-2.433594 6.230469-7.152344 11.140625-13.277344 13.824219-3.222656 1.414062-6.628906 2.117188-10.042969 2.117188zm-10.746093-28.84375c-.972657 2.734374-.867188 5.6875.308593 8.359374 1.21875 2.785157 3.453125 4.929688 6.285157 6.035157 2.828124 1.105469 5.921874 1.058593 8.71875-.171875 2.789062-1.222656 4.929687-3.453125 6.035156-6.289063l47.972656-122.742187c.765625-1.957032 1.667969-3.574219 2.574219-4.914063l-7.867188-7.871093c-.40625 1.726562-.765625 3.796874-1.03125 5.296874-.667969 3.832032-1.355469 7.792969-2.738281 11.339844-.109375.265625-.230469.527344-.363281.777344zm0 0" fill="#0e65e5"/><path d="m196.152344 247.808594-27.375-66.09375c-8.3125-20.070313-24.996094-35.554688-45.671875-42.21875-21.265625-6.855469-40.402344-9.15625-30.601563-3.570313-16.617187-2.558593-32.277344 8.503907-35.425781 25.023438l-7.925781 98.792969 80.363281 17.34375 12.144531-72.9375 23.78125 57.414062c3.667969 8.859375 14.035156 12.914062 22.800782 8.734375 8.222656-3.925781 11.398437-14.074219 7.910156-22.488281zm0 0" fill="#d7e9ff"/><path d="m129.515625 283.910156c-.476563 0-.957031-.046875-1.4375-.152344l-80.367187-17.34375c-3.347657-.722656-5.640626-3.808593-5.367188-7.21875l7.925781-98.792968c.019531-.246094.054688-.492188.101563-.730469 3.285156-17.261719 17.566406-29.542969 34.324218-30.835937 2.394532-3.027344 9.722657-5.765626 40.5 4.160156 22.578126 7.28125 40.769532 24.085937 49.886719 46.105468l27.378907 66.09375v.003907c5.015624 12.121093.0625 25.847656-11.277344 31.257812-5.933594 2.820313-12.566406 3.085938-18.671875.742188-6.035157-2.3125-10.910157-7.0625-13.375-13.03125l-14.652344-35.382813-8.234375 49.421875c-.308594 1.84375-1.351562 3.480469-2.898438 4.523438-1.140624.777343-2.472656 1.179687-3.835937 1.179687zm-73.085937-29.582031 67.527343 14.574219 10.972657-65.878906c.5-3.007813 2.933593-5.316407 5.960937-5.660157 3.085937-.359375 5.914063 1.363281 7.078125 4.167969l23.78125 57.414062c1.058594 2.558594 3.066406 4.511719 5.652344 5.507813 2.582031.992187 5.394531.871094 7.902344-.320313 4.707031-2.246093 6.746093-8.398437 4.546874-13.714843l-27.382812-66.089844c-7.585938-18.3125-22.699219-32.289063-41.460938-38.335937-9.550781-3.082032-17.84375-4.957032-23.15625-5.820313-1.496093 1.875-3.914062 2.878906-6.386718 2.5-12.933594-1.984375-24.996094 6.429687-27.613282 19.214844zm0 0" fill="#0e65e5"/><path d="m226.644531 403.101562c0-11.3125-39.734375-20.480468-88.746093-20.480468-49.015626 0-88.746094 9.167968-88.746094 20.480468s39.730468 20.480469 88.746094 20.480469c49.011718 0 88.746093-9.167969 88.746093-20.480469zm0 0" fill="#0e65e5"/><path d="m137.898438 430.410156c-9.78125 0-95.574219-.769531-95.574219-27.308594 0-26.539062 85.792969-27.304687 95.574219-27.304687 9.777343 0 95.570312.765625 95.570312 27.304687 0 26.539063-85.789062 27.308594-95.570312 27.308594zm-81.539063-27.308594c4.890625 5.234376 34.238281 13.652344 81.539063 13.652344 47.300781 0 76.644531-8.417968 81.539062-13.652344-4.894531-5.234374-34.238281-13.652343-81.539062-13.652343-47.300782 0-76.648438 8.417969-81.539063 13.652343zm163.589844.6875h.066406zm0 0" fill="#0e65e5"/><path d="m147.734375 195.101562c0 15.09375-12.234375 27.328126-27.328125 27.328126-15.089844 0-27.328125-12.234376-27.328125-27.328126 0-15.089843 12.238281-27.324218 27.328125-27.324218 15.09375 0 27.328125 12.234375 27.328125 27.324218zm0 0" fill="#94c1ff"/><path d="m120.402344 229.257812c-18.832032 0-34.152344-15.320312-34.152344-34.152343s15.320312-34.152344 34.152344-34.152344c18.835937 0 34.160156 15.320313 34.160156 34.152344s-15.324219 34.152343-34.160156 34.152343zm0-54.652343c-11.304688 0-20.5 9.195312-20.5 20.5 0 11.304687 9.195312 20.5 20.5 20.5 11.308594 0 20.507812-9.195313 20.507812-20.5 0-11.304688-9.199218-20.5-20.507812-20.5zm0 0" fill="#0e65e5"/><path d="m93.078125 189.03125c0 15.09375-12.234375 27.328125-27.324219 27.328125-15.09375 0-27.328125-12.234375-27.328125-27.328125s12.234375-27.328125 27.328125-27.328125c15.089844 0 27.324219 12.234375 27.324219 27.328125zm0 0" fill="#94c1ff"/><path d="m65.75 223.183594c-18.832031 0-34.152344-15.320313-34.152344-34.152344s15.320313-34.152344 34.152344-34.152344c18.835938 0 34.15625 15.320313 34.15625 34.152344s-15.320312 34.152344-34.15625 34.152344zm0-54.652344c-11.304688 0-20.5 9.199219-20.5 20.5 0 11.304688 9.195312 20.503906 20.5 20.503906 11.308594 0 20.5-9.199218 20.5-20.503906 0-11.300781-9.191406-20.5-20.5-20.5zm0 0" fill="#0e65e5"/><path d="m279.390625 239.5c-45.054687-9.847656-57.925781 36.109375-57.925781 36.109375 9.65625-49.238281-41.832032-55.804687-41.832032-55.804687-16.089843 32.824218 9.652344 59.085937 9.652344 59.085937v23.417969c0 14.574218-10.445312 27.585937-24.667968 28.972656-11.242188 1.089844-21.25-4.761719-26.390626-13.84375-3.269531-5.777344-3.886718-12.730469-2.585937-19.265625l7.347656-36.941406-10.65625-12.683594c-6.777343-8.066406-18.273437-9.972656-27.207031-4.503906-8.402344 5.144531-19.160156 3.792969-26.089844-3.277344l-2.296875-2.34375c-5.921875-6.042969-14.761719-7.992187-22.601562-4.992187l-10.941407 4.183593-6.75 55.761719c-2.214843 18.285156-.675781 37.046875 6.019532 54.15625 16.328125 41.726562 56.984375 70.855469 104.089844 69.152344 57.199218-2.074219 103.875-54.148438 103.875-112.53125v-12.136719c41.832031-13.125 28.960937-52.515625 28.960937-52.515625zm0 0" fill="#288eea"/><path d="m142.722656 423.582031c-46.738281.003907-89.238281-29.140625-106.621094-73.5625-6.691406-17.09375-8.917968-36.964843-6.4375-57.460937l6.746094-55.765625c.308594-2.511719 1.972656-4.648438 4.339844-5.554688l10.941406-4.1875c10.359375-3.964843 22.105469-1.375 29.917969 6.589844l2.300781 2.347656c4.707032 4.796875 11.953125 5.707031 17.652344 2.230469 11.867188-7.261719 27-4.769531 35.996094 5.933594l10.660156 12.683594c1.332031 1.585937 1.871094 3.691406 1.464844 5.726562l-7.355469 36.941406c-1.074219 5.402344-.417969 10.574219 1.835937 14.570313 4.085938 7.214843 11.703126 11.222656 19.792969 10.410156 10.371094-1.011719 18.5-10.75 18.5-22.175781v-20.773438c-9.917969-11.570312-22.460937-37.191406-8.953125-64.738281 1.285156-2.617187 4.121094-4.125 6.988282-3.765625 1.078124.140625 26.496093 3.578125 40.363281 22.789062 3.128906 4.335938 5.40625 9.082032 6.839843 14.222657 10.78125-12.699219 28.082032-22.6875 53.15625-17.214844 2.359376.515625 4.28125 2.246094 5.027344 4.550781.257813.796875 6.285156 19.757813-2.808594 37.421875-5.101562 9.914063-13.773437 17.316407-25.820312 22.046875v7.308594c0 62.523438-50.582031 117.179688-110.453125 119.351562-1.359375.046876-2.71875.074219-4.074219.074219zm-93.25-181.0625-6.246094 51.679688c-2.214843 18.261719-.28125 35.84375 5.597657 50.84375 15.773437 40.316406 54.941406 66.335937 97.480469 64.820312 52.738281-1.914062 97.292968-50.324219 97.292968-105.707031v-12.136719c0-2.984375 1.933594-5.621093 4.78125-6.511719 10.945313-3.433593 18.53125-9.136718 22.558594-16.953124 4.402344-8.5625 3.703125-18.015626 2.820312-23.136719-35.027343-4.878907-45.28125 30.472656-45.71875 32.03125-.988281 3.535156-4.589843 5.65625-8.152343 4.800781-3.566407-.847656-5.828125-4.359375-5.121094-7.953125 2.40625-12.273437.746094-22.503906-4.925781-30.414063-7.203125-10.023437-19.339844-14.46875-26.128906-16.25-9.253907 25.664063 9.605468 45.609376 10.46875 46.496094 1.226562 1.273438 1.933593 2.992188 1.933593 4.761719v23.421875c0 18.371094-13.542969 34.082031-30.835937 35.761719-13.363282 1.304687-26.320313-5.476563-32.992188-17.273438-3.867187-6.839843-5.054687-15.347656-3.339844-23.960937l6.714844-33.726563-8.554687-10.171875c-4.605469-5.488281-12.34375-6.78125-18.417969-3.074218-11.140625 6.804687-25.34375 5.046874-34.527344-4.320313l-2.300781-2.347656c-4-4.078125-10.027344-5.40625-15.285156-3.390625zm0 0" fill="#0e65e5"/><path d="m102.191406 155.632812c-8.386718 0-15.183594-6.796874-15.183594-15.183593v-6.070313c0-8.386718 6.800782-15.179687 15.183594-15.179687 8.382813 0 15.179688 6.796875 15.179688 15.179687v6.070313c0 8.386719-6.796875 15.183593-15.179688 15.183593zm0 0" fill="#d7e9ff"/><path d="m102.191406 162.457031c-12.132812 0-22.007812-9.871093-22.007812-22.007812v-6.074219c0-12.132812 9.871094-22.007812 22.007812-22.007812 12.132813 0 22.007813 9.875 22.007813 22.007812v6.074219c0 12.136719-9.875 22.007812-22.007813 22.007812zm0-36.433593c-4.609375 0-8.355468 3.75-8.355468 8.355468v6.074219c0 4.605469 3.746093 8.355469 8.355468 8.355469 4.605469 0 8.351563-3.746094 8.351563-8.355469v-6.074219c0-4.605468-3.746094-8.355468-8.351563-8.355468zm0 0" fill="#0e65e5"/><path d="m111.578125 131.339844h-6.632813c-23.320312 0-42.226562-18.90625-42.226562-42.226563v-24.851562c0-23.320313 18.90625-42.226563 42.226562-42.226563h6.632813c23.320313 0 42.230469 18.90625 42.230469 42.226563v24.851562c0 23.320313-18.910156 42.226563-42.230469 42.226563zm0 0" fill="#d7e9ff"/><path d="m111.578125 138.167969h-6.636719c-27.046875 0-49.050781-22.007813-49.050781-49.054688v-24.851562c0-27.046875 22.007813-49.054688 49.050781-49.054688h6.636719c27.046875 0 49.050781 22.007813 49.050781 49.054688v24.851562c.003906 27.046875-22.003906 49.054688-49.050781 49.054688zm-6.632813-109.304688c-19.519531 0-35.398437 15.878907-35.398437 35.398438v24.851562c0 19.519531 15.878906 35.402344 35.398437 35.402344h6.632813c19.519531 0 35.398437-15.882813 35.398437-35.402344v-24.851562c0-19.519531-15.878906-35.398438-35.398437-35.398438zm0 0" fill="#0e65e5"/><path d="m68.789062 15.960938s-12.144531 66.800781 103.234376 97.164062v-31.945312c0-28.238282-15.785157-54.101563-40.902344-67.007813l-.472656-.242187c-19.585938-10.066407-42.976563-9.296876-61.859376 2.03125zm0 0" fill="#94c1ff"/><g fill="#0e65e5"><path d="m172.023438 119.949219c-.578126 0-1.167969-.074219-1.742188-.222657-120.105469-31.609374-108.753906-102.003906-108.203125-104.984374.34375-1.933594 1.511719-3.625 3.199219-4.632813 21.054687-12.628906 46.640625-13.476563 68.484375-2.253906 27.996093 14.386719 45.089843 42.386719 45.089843 73.324219v31.941406c0 2.117187-.980468 4.113281-2.660156 5.40625-1.207031.929687-2.675781 1.421875-4.167968 1.421875zm-96.792969-99.78125c-.53125 12.347656 3.554687 58.445312 89.964843 83.964843v-22.953124c0-25.796876-14.253906-49.144532-37.191406-60.933594-17.054687-8.769532-36.386718-8.660156-52.773437-.078125zm0 0"/><path d="m85.191406 384.390625c-.566406 0-1.140625-.070313-1.722656-.214844-3.644531-.949219-5.839844-4.671875-4.890625-8.320312l2.550781-9.867188c2.074219-7.992187 8.085938-13.277343 15.027344-13.277343.128906 0 .25.003906.367188.007812l7.894531.214844c.425781-.128906 1.773437-1.640625 2.050781-4.429688 1.015625-9.910156 7.820312-17.027344 16.300781-16.675781l10.066407.496094c3.765624.183593 6.667968 3.386719 6.488281 7.152343-.1875 3.765626-3.464844 6.625-7.152344 6.484376l-10.066406-.492188c-.3125.097656-1.742188 1.417969-2.046875 4.421875-.992188 9.722656-7.660156 16.777344-16.007813 16.6875l-7.890625-.210937c-.25.078124-1.269531.957031-1.8125 3.046874l-2.554687 9.859376c-.796875 3.078124-3.570313 5.117187-6.601563 5.117187zm0 0"/><path d="m55.976562 328.007812c-1.746093 0-3.492187-.667968-4.824218-2-2.667969-2.664062-2.667969-6.988281 0-9.652343l8.25-8.257813c5.320312-5.308594 13.402344-6.621094 20.109375-3.261718 1.453125.738281 3.207031.441406 4.34375-.707032l2.847656-2.851562c5.320313-5.304688 13.394531-6.632813 20.113281-3.269532l6.828125 3.414063c3.375 1.6875 4.738281 5.789063 3.050781 9.160156-1.683593 3.371094-5.785156 4.734375-9.15625 3.054688l-6.828124-3.414063c-1.460938-.738281-3.199219-.445312-4.347657.707032l-2.847656 2.847656c-5.304687 5.308594-13.378906 6.640625-20.113281 3.269531-1.453125-.738281-3.199219-.4375-4.34375.707031l-8.253906 8.253906c-1.335938 1.335938-3.078126 2-4.828126 2zm0 0"/><path d="m226.644531 348.488281c-1.746093 0-3.496093-.667969-4.828125-2l-2.304687-2.308593c-.628907-.621094-1.570313-.78125-2.363281-.378907-7.71875 3.871094-17.171876.726563-21.058594-7.015625-.242188-.492187-.425782-1.003906-.546875-1.535156l-.445313-1.957031c-.714844-3.109375-3.433594-5.285157-6.621094-5.285157h-2.792968c-3.773438 0-6.828125-3.054687-6.828125-6.824218 0-3.773438 3.054687-6.828125 6.828125-6.828125h2.792968c9.597657 0 17.792969 6.535156 19.925782 15.898437l.199218.863282c.605469.675781 1.59375.898437 2.441407.46875 6.0625-3.015626 13.339843-1.84375 18.121093 2.941406l2.304688 2.308594c2.667969 2.664062 2.667969 6.988281 0 9.652343-1.332031 1.335938-3.078125 2-4.824219 2zm0 0"/><path d="m216.445312 310.390625c-4.40625 0-8.792968-1.839844-11.902343-5.429687-.351563-.414063-.660157-.867188-.90625-1.347657l-.910157-1.785156c-1.460937-2.851563-4.628906-4.277344-7.722656-3.496094l-2.703125.683594c-3.648437.914063-7.367187-1.273437-8.300781-4.9375-.925781-3.65625 1.285156-7.367187 4.941406-8.292969l2.707032-.6875c9.285156-2.355468 18.859374 1.957032 23.230468 10.507813l.398438.785156c.753906.507813 1.78125.480469 2.480468-.144531 5.132813-4.429688 12.488282-5.0625 18.289063-1.609375l2.8125 1.671875c3.238281 1.925781 4.300781 6.117187 2.371094 9.355468-1.933594 3.242188-6.105469 4.300782-9.359375 2.378907l-2.804688-1.671875c-.75-.457032-1.714844-.367188-2.386718.214844-2.957032 2.554687-6.601563 3.804687-10.234376 3.804687zm0 0"/></g><path d="m199.335938 416.753906c-3.773438 0-6.824219-3.054687-6.824219-6.824218v-27.308594c0-3.769532 3.050781-6.824219 6.824219-6.824219 3.773437 0 6.828124 3.054687 6.828124 6.824219v27.308594c0 3.769531-3.054687 6.824218-6.828124 6.824218zm0 0" fill="#fff"/><path d="m212.992188 403.101562h-27.308594c-3.773438 0-6.828125-3.054687-6.828125-6.828124 0-3.769532 3.054687-6.824219 6.828125-6.824219h27.308594c3.773437 0 6.824218 3.054687 6.824218 6.824219 0 3.773437-3.050781 6.828124-6.824218 6.828124zm0 0" fill="#fff"/><path d="m151.542969 82.25c-3.28125 0-6.171875-2.367188-6.726563-5.707031-5.914062-35.496094-40.71875-41.921875-42.199218-42.179688-3.707032-.640625-6.199219-4.160156-5.574219-7.871093.632812-3.707032 4.125-6.21875 7.839843-5.589844 15.832032 2.636718 47.367188 17.191406 53.402344 53.394531.617188 3.722656-1.894531 7.238281-5.613281 7.859375-.378906.0625-.753906.09375-1.128906.09375zm0 0" fill="#fff"/></svg>